<?xml version="1.0" encoding="UTF-8"?>
<svg width="313" height="404" fill="none" version="1.1" viewBox="0 0 313 404" xmlns="http://www.w3.org/2000/svg">
 <path d="m146.57 123.84c27.383-15.981 50.02-1.045 54.025 33.442 0.696 5.965-3.831 13.847-9.36 17.069l-89.329 52.166c-5.5287 3.222-10.056 0.61-9.3596-6.183 4.005-39.059 26.686-80.513 54.024-96.494z" fill="url(#paint0_linear)" opacity=".5"/>
 <path d="m116.06 79.073c0 23.819 13.756 35.053 30.734 25.125 16.978-9.9277 30.734-37.23 30.734-61.049s-13.756-35.053-30.734-25.125c-16.978 9.9281-30.734 37.23-30.734 61.049z" fill="url(#paint1_linear)" opacity=".5"/>
 <path d="m128.99 109.55c27.382-15.98 50.019-1.045 54.024 33.442 0.697 5.966-3.83 13.847-9.359 17.07l-89.329 52.166c-5.5286 3.222-10.056 0.609-9.3595-6.184 4.005-39.059 26.642-80.513 54.024-96.494z" fill="url(#paint2_linear)" opacity=".07"/>
 <path d="m98.471 64.791c0 23.819 13.756 35.053 30.734 25.125s30.734-37.23 30.734-61.049c0-23.819-13.756-35.053-30.734-25.125-16.978 9.9281-30.734 37.23-30.734 61.049z" fill="url(#paint3_linear)" opacity=".07"/>
 <path d="m39.31 246.65c0-1.602 0.8544-3.082 2.2415-3.883l68.39-39.497c2.989-1.727 6.727 0.431 6.727 3.883v32.554l-77.358 44.676v-37.733z" fill="url(#paint4_linear)" opacity=".2"/>
 <path d="m100.95 221.98c0 3.31 1.959 4.877 4.397 3.484s4.397-5.225 4.397-8.535c0-3.309-1.959-4.877-4.397-3.483-2.438 1.393-4.397 5.225-4.397 8.534z" fill="#ec8000" fill-opacity=".79924"/>
 <path d="m96.86 220.55-23.246 13.456v4.833l23.29-13.455-0.0435-4.834z" fill="#FEFEFE" opacity=".15"/>
 <path d="m96.86 230.26-49.54 28.608v4.921l49.54-28.609v-4.92z" fill="#FEFEFE" opacity=".15"/>
 <path d="m196.46 200.06c0-1.603 0.855-3.083 2.243-3.884l68.389-39.459c2.99-1.724 6.726 0.433 6.726 3.884v32.558l-77.358 44.676v-37.775z" fill="url(#paint5_linear)" opacity=".2"/>
 <path d="m258.1 175.39c0 3.31 1.959 4.877 4.397 3.484 2.438-1.394 4.397-5.226 4.397-8.535s-1.959-4.877-4.397-3.483c-2.438 1.393-4.397 5.225-4.397 8.534z" fill="#6d02d8" fill-opacity=".80303"/>
 <path d="m254.14 174.17-14.018 8.099v4.921l14.018-8.1v-4.92z" fill="#FEFEFE" opacity=".15"/>
 <path d="m254.01 183.88-49.54 28.609v4.92l49.54-28.608v-4.921z" fill="#FEFEFE" opacity=".15"/>
 <path d="m146.61 249.83c2e-3 -3.454-3.736-5.613-6.727-3.886l-137.6 79.47c-1.3863 0.8-2.2406 2.279-2.2416 3.88l-0.042049 73.833 133.65-77.16 10.972 3.584c0.966 0.316 1.958-0.404 1.958-1.42l0.039-78.301z" fill="url(#paint6_linear)" opacity=".3"/>
 <path d="m116.84 284.86c0 6.314 3.7 9.232 8.314 6.575 4.615-2.656 8.315-9.928 8.315-16.198 0-6.314-3.7-9.231-8.315-6.575-4.57 2.656-8.314 9.928-8.314 16.198z" fill="#ec8000" fill-opacity=".79924"/>
 <g fill="#FEFEFE">
  <path d="m108.92 282.42-32.127 18.55v6.705l32.127-18.549v-6.706z" opacity=".15"/>
  <path d="m108.92 295.88-95.946 55.388v6.706l95.946-55.388v-6.706z" opacity=".15"/>
  <path d="m108.92 309.34-75.007 43.327v6.705l75.007-43.326v-6.706z" opacity=".15"/>
 </g>
 <path d="m166.42 266.59c1e-3 -1.601 0.856-3.081 2.243-3.881l137.6-79.428c2.99-1.726 6.727 0.433 6.726 3.886l-0.04 68.649-133.64 77.16-10.193 15.105c-0.825 1.223-2.734 0.638-2.734-0.836l0.04-80.655z" fill="url(#paint7_linear)" opacity=".3"/>
 <path d="m196.2 272.41c0 6.313-3.744 13.542-8.315 16.198-4.614 2.656-8.315-0.305-8.315-6.619s3.744-13.542 8.315-16.198c4.571-2.613 8.315 0.348 8.315 6.619z" fill="#6d02d8" fill-opacity=".80303"/>
 <g fill="#FEFEFE">
  <path d="m204.12 260.87 32.127-18.549v6.705l-32.127 18.55v-6.706z" opacity=".15"/>
  <path d="m204.08 274.28 95.946-55.388v6.706l-95.902 55.388-0.044-6.706z" opacity=".15"/>
  <path d="m204.08 287.74 75.007-43.326v6.705l-75.007 43.327v-6.706z" opacity=".15"/>
 </g>
 <path d="m251.97 311.6c-2.612 1.481-4.701 5.139-4.701 8.187v13.281l-8.794 5.051c-2.612 1.48-4.701 5.138-4.701 8.142 0 3.005 2.089 4.224 4.701 2.744l8.794-5.095v13.281c0 3.005 2.089 4.224 4.701 2.743 2.612-1.48 4.702-5.138 4.702-8.142v-13.281l8.793-5.051c2.612-1.481 4.702-5.139 4.702-8.143 0-3.005-2.09-4.224-4.702-2.744l-8.793 5.052v-13.281c0.043-3.048-2.09-4.268-4.702-2.744z" fill="url(#paint8_linear)" opacity=".2"/>
 <path d="m62.818 141.47-12.102 23.775c-1.6543 3.266-1.3931 6.532 0.6094 7.316s4.9627-1.263 6.617-4.529l0.1306-0.305v26.388c0 3.005 2.0895 4.224 4.7015 2.743 2.612-1.524 4.7015-5.138 4.7015-8.142v-26.388l0.1306 0.131c1.6543 1.349 4.658-0.044 6.617-3.136 2.0025-3.091 2.2637-6.662 0.6095-8.012l-12.015-9.841z" fill="url(#paint9_linear)" opacity=".2"/>
 <defs>
  <linearGradient id="paint0_linear" x1="33.618" x2="144.84" y1="97.776" y2="178.89" gradientUnits="userSpaceOnUse">
   <stop stop-color="#fff" offset="0"/>
   <stop stop-color="#fff" stop-opacity="0" offset="1"/>
  </linearGradient>
  <linearGradient id="paint1_linear" x1="90.288" x2="201.51" y1="19.891" y2="101" gradientUnits="userSpaceOnUse">
   <stop stop-color="#fff" offset="0"/>
   <stop stop-color="#fff" stop-opacity="0" offset="1"/>
  </linearGradient>
  <linearGradient id="paint2_linear" x1="16.023" x2="127.24" y1="83.489" y2="164.6" gradientUnits="userSpaceOnUse">
   <stop stop-color="#fff" offset="0"/>
   <stop stop-color="#fff" stop-opacity="0" offset="1"/>
  </linearGradient>
  <linearGradient id="paint3_linear" x1="72.693" x2="183.92" y1="5.6028" y2="86.714" gradientUnits="userSpaceOnUse">
   <stop stop-color="#fff" offset="0"/>
   <stop stop-color="#fff" stop-opacity="0" offset="1"/>
  </linearGradient>
  <linearGradient id="paint4_linear" x1="69.27" x2="86.727" y1="226.77" y2="257" gradientUnits="userSpaceOnUse">
   <stop stop-color="#fff" offset="0"/>
   <stop stop-color="#fff" stop-opacity="0" offset="1"/>
  </linearGradient>
  <linearGradient id="paint5_linear" x1="226.42" x2="243.88" y1="180.18" y2="210.42" gradientUnits="userSpaceOnUse">
   <stop stop-color="#fff" offset="0"/>
   <stop stop-color="#fff" stop-opacity="0" offset="1"/>
  </linearGradient>
  <linearGradient id="paint6_linear" x1="83.661" x2="64.699" y1="244.55" y2="398.3" gradientUnits="userSpaceOnUse">
   <stop stop-color="#fff" offset="0"/>
   <stop stop-color="#fff" stop-opacity="0" offset="1"/>
  </linearGradient>
  <linearGradient id="paint7_linear" x1="198.39" x2="274.09" y1="233.4" y2="292.66" gradientUnits="userSpaceOnUse">
   <stop stop-color="#fff" offset="0"/>
   <stop stop-color="#fff" stop-opacity="0" offset="1"/>
  </linearGradient>
  <linearGradient id="paint8_linear" x1="242.89" x2="265.69" y1="328.56" y2="346.55" gradientUnits="userSpaceOnUse">
   <stop stop-color="#fff" offset="0"/>
   <stop stop-color="#fff" stop-opacity="0" offset="1"/>
  </linearGradient>
  <linearGradient id="paint9_linear" x1="54.215" x2="76.298" y1="165.46" y2="177.76" gradientUnits="userSpaceOnUse">
   <stop stop-color="#fff" offset="0"/>
   <stop stop-color="#fff" stop-opacity="0" offset="1"/>
  </linearGradient>
 </defs>
</svg>
