<?xml version="1.0" encoding="UTF-8"?>
<!-- Created with Inkscape (http://www.inkscape.org/) -->
<svg width="287.04" height="77.711" version="1.1" viewBox="0 0 287.04 77.711" xmlns="http://www.w3.org/2000/svg">
 <g transform="translate(.44816 -.52161)">
  <g transform="matrix(.88902 -.21015 .34778 .68976 -78.271 -393.73)" fill="#ff7f00" stroke-width="1.4873" aria-label="-me ">
   <path d="m119.17 701.51q-3.6289 0-5.4731-2.0227-1.7847-1.9632-1.7847-4.8782 0-2.677 1.3088-5.6516 1.3683-2.9745 3.5694-5.5921 2.2606-2.6176 4.9377-4.2238 2.677-1.6657 5.2946-1.6657 1.3683 0 2.4986 0.71388 1.1898 0.71388 1.1898 2.915 0 2.2606-1.3683 4.2833-1.3088 1.9632-3.5099 3.5099-2.1416 1.5467-4.7592 2.5581-2.5581 0.95184-5.1161 1.1898-0.11898 0.5949-0.17847 1.1303-0.0595 0.53541-0.0595 1.0113 0 0.89235 0.17847 1.7847 0.23796 0.89235 0.77337 1.6657 0.53541 0.71388 1.4278 1.1303 0.95184 0.41643 2.3201 0.41643 2.5581 0 5.0566-1.4278 2.4986-1.4872 4.6402-3.8668t3.6289-5.2351l0.71388 0.53541q-1.6062 3.5694-4.1048 6.187-2.4391 2.6176-5.3541 4.0453-2.8555 1.4872-5.83 1.4872zm-2.915-9.9943q1.6062-0.53541 3.6289-1.5467 2.0227-1.0708 3.8668-2.4986 1.9037-1.4278 3.0935-3.153 1.2493-1.7252 1.2493-3.6289 0-0.65439-0.23796-1.0113t-1.0113-0.35694q-1.4278 0-3.034 1.1303-1.6062 1.0708-3.0935 2.8555t-2.677 3.9263-1.7847 4.2833zm-11.957 9.221q-2.0822 0-3.034-1.3088-0.95184-1.2493-0.95184-3.034 0-1.4872 0.41643-2.9745 0.47592-1.4872 0.89235-2.915 0.47592-1.4278 0.47592-2.5581 0-1.1898-0.53541-1.6657t-1.1898-0.47592q-1.4872 0-3.2719 2.3201-1.7252 2.3201-4.5212 6.5439-0.95184 1.4278-1.6062 2.915-0.65439 1.4278-1.2493 2.6176-0.47592 0-1.1898-0.11898t-1.3088-0.41643q-0.53541-0.23796-0.53541-0.65439t0.53541-1.9632q0.5949-1.6062 1.3088-3.6884 0.77337-2.1416 1.3088-4.2833 0.5949-2.2011 0.5949-3.7479 0-1.0113-0.35694-1.6062-0.29745-0.65439-1.1303-0.65439-1.3088 0-3.153 1.6062-1.8442 1.5467-3.8074 4.1048t-3.7479 5.6516q-1.7252 3.034-2.796 6.068-0.53541 0-1.3088-0.17847t-1.3088-0.47592q-0.5949-0.29745-0.5949-0.5949 0-0.35694 0.65439-2.0822 0.5949-1.7847 1.4278-4.2238 0.77337-2.4986 1.3683-5.0566 0.65439-2.5581 0.65439-4.5212 0.35694-0.41643 1.1303-0.83286t1.6062-0.41643 1.1898 0.41643q0.41643 0.41643 0.41643 1.1303 0 0.77337-0.47592 2.677-0.41643 1.8442-1.0708 4.1048 1.1898-1.9037 2.677-3.8668 1.5467-2.0227 3.2125-3.6884t3.3314-2.677q1.7252-1.0708 3.3314-1.0708 1.8442 0 2.4986 1.3683 0.71388 1.3088 0.71388 3.153 0 1.4872-0.35694 3.153-0.29745 1.6062-0.71388 3.034-0.41643 1.3683-0.77337 2.2011 1.2493-2.2606 2.7365-4.3428 1.5467-2.1416 3.3314-3.4504 1.7847-1.3683 3.8074-1.3683 1.9037 0 2.6176 1.1303 0.77337 1.1303 0.77337 2.677t-0.53541 3.3909-1.1303 3.5694q-0.53541 1.7252-0.53541 2.9745 0 0.77337 0.35694 1.4278 0.41643 0.5949 1.4278 0.5949 1.6657 0 3.0935-1.4872 1.4872-1.5467 2.7365-3.6884 1.2493-2.2011 2.1416-4.2238l0.71388 0.83286q-0.95184 2.4986-2.4391 4.9972-1.4872 2.4391-3.5099 4.0453-1.9632 1.6062-4.3428 1.6062zm-56.634-10.411q0.35694-0.89235 1.3088-1.4278 1.0113-0.5949 2.4986-0.89235 1.4872-0.35694 3.3909-0.47592t4.0453-0.11898q1.6062 0 3.0935 0.0595t2.796 0.17847q1.3683 0.0595 2.3796 0.17847 1.0708 0.0595 1.7252 0.11898-2.3201 1.4872-4.4023 1.6062-2.0227 0.11898-4.1048 0.11898-1.6062 0-3.2125 0-1.5467 0-2.796 0-1.0113 0-2.0822 0.11898-1.0708 0.0595-2.2011 0.17847-1.1303 0.11898-2.4391 0.35694z"/>
  </g>
  <g transform="matrix(.62821 0 0 1.0925 -78.271 -393.73)" fill="#7f00ff" stroke-width="1.9911" aria-label="Pergunte">
   <path d="m431.11 397.9q0 2.8778-2.4889 3.85-1.6722 0.62223-24.072 2.2945 0.50556 3.4222 3.7722 5.8334 3.1111 2.2944 6.6889 2.2944 6.1445 0 11.278-3.9667 0.62222-0.50556 1.2444-1.0111 0.31111 0 0.38889 0.0778 0.11666 0.0778 1.4778 2.7222 1.3611 2.6056 1.3611 2.8 0 0.23334-0.62222 0.89445-5.7167 6.0667-14.661 6.0667-9.0222 0-14.389-5.3667-5.3667-5.4056-5.3667-14.389 0-8.0111 5.1334-13.961 5.4056-6.1834 13.261-6.1834 7.3111 0 12.211 5.3667 4.7833 5.2111 4.7833 12.678zm-9.2556-2.3722q0-3.2278-2.5667-5.7167-2.5278-2.4889-5.7167-2.4889-3.5778 0-6.3778 2.8778-2.7611 2.8778-2.7611 6.4556 0 0.81667 1.4 0.81667 5.7556 0 13.767-1.1667 2.2556-0.31111 2.2556-0.77778zm-29.245 16.1q0 0.85556-0.15556 2.3333-0.19444 1.8278-0.23333 2.3722-0.0389 0.70001-0.11667 0.85556-0.15555 0.27223-0.73889 0.54445-3.1889 1.5167-10.033 1.5167-9.1 0-9.1-8.2445 0-3.3056 0.15555-9.9167 0.15556-6.65 0.15556-9.9556 0-1.5944-1.5944-1.7111-1.4389 0-2.8389-0.0389-0.81667-0.19445-0.81667-3.1889 0-1.1278 0.15556-2.3722 0.11667-0.93334 1.2444-1.1278 0.97222 0 1.9056-0.0389 1.7889-0.0778 1.7889-1.5944 0-1.5556-0.11666-4.7445-0.0778-3.1889-0.0778-4.7834 0-2.8389 1.0889-2.8389 0.35 0 7.3111 1.2056 0.89445 0.11667 0.89445 0.85556 0 1.7111-0.27222 5.1334-0.23333 3.4222-0.23333 5.1334 0 1.1278 1.05 1.1278h9.3334q0.66111 0 0.66111 0.46667t-0.15555 1.5167q-0.11667 1.0111-0.11667 1.5167 0 0.58334 0.0389 1.7889t0.0389 1.7889q0 0.73889-1.0889 0.73889-1.5556 0-4.7056-0.19444-3.15-0.23334-4.7056-0.23334-0.31112 0-0.46667 2.2167-0.19445 2.7611-0.19445 7.7389v5.7945q0 3.3445 0.62223 4.6667 0.93333 2.0222 3.85 2.0222 1.2056 0 3.5389-0.50555 2.3333-0.54445 3.4611-0.54445 0.46667 0 0.46667 0.7zm-29.05 6.3778q0 0.85556-0.77778 0.85556-1.2833 0-3.85-0.0389-2.5278-0.0389-3.8111-0.0389-0.7 0-0.7-1.1278 0-1.9056 0.11667-5.7945t0.11667-5.8334q0-1.5556-0.0389-4.6278-0.0389-3.1111-0.0389-4.6667 0-4.4334-1.2833-6.2611-1.5556-2.1778-5.7556-2.1778-1.9444 0-5.4056 2.1778-3.6556 2.2944-3.6556 4.0834v23.333q0 0.97222-0.7389 0.97222-1.2444 0-3.7333-0.0389t-3.7334-0.0389q-0.81667 0-0.81667-0.89444 0-3.0722 0.0778-9.2167 0.11667-6.1445 0.11667-9.2556 0-8.2834-1.75-15.283-0.11666-0.35-0.11666-0.50556 0-0.38889 0.50555-0.54444 0.27223-0.0389 4.4334-0.7 4.2-0.70001 4.3945-0.70001 0.23333 0 0.31111 0.62223 0.19445 2.4111 0.89445 4.8611 2.0222-1.5944 5.3278-3.9667 4.0834-2.4889 7.8945-2.4889 7.3111 0 9.9945 4.2389 1.9833 3.1111 1.9833 10.072 0 1.2056-0.0778 3.6944-0.0389 2.4889-0.0389 3.7334 0 2.6056 0.0778 7.7778t0.0778 7.7778zm-42.195-34.495q0 2.8389-0.23333 8.5945-0.23333 5.7167-0.23333 8.5945 0 2.8389 0.15555 8.5167 0.19445 5.6389 0.19445 8.4778 0 0.77778-0.73889 1.0111-0.31112 0.0778-7.8945 0.0778-0.46667 0-0.58334-2.9167-0.0778-2.9167-0.42778-2.9167-0.19444 0-0.58333 0.35-6.4945 5.6389-12.833 5.6389-8.5945 0-11.356-6.2222-1.7111-3.85-1.7111-13.844 0-9.0222 1.4389-15.283 0.35-1.5167 1.2833-1.5167 1.1278 0 3.3833 0.0389t3.3833 0.0389q0.77778 0 0.77778 0.85556 0 1.5167-0.50555 5.0556-0.54445 3.7722-0.58334 5.3278-0.11667 2.3333-0.11667 5.1334 0 6.8056 0.97223 9.1389 1.6722 4.2 7.4278 4.2 2.45 0 5.7945-2.4111 3.5389-2.5278 3.6556-4.8611 0.19445-2.9167 0.19445-20.533 0-1.9056 1.5944-1.9056h6.4167q1.1278 0 1.1278 1.3611zm-43.167-0.97223q0 4.6667-0.0778 14.039-0.0778 9.3334-0.0778 14 0 9.2556-3.9667 13.65-4.1611 4.6667-13.3 4.6667-8.8278 0-14.272-3.3445-0.85556-0.54445-0.85556-0.93334 0 0.42778 1.1667-5.7556 0.11667-0.66111 0.54445-0.66111 0.19445 0 0.50556 0.19444 5.8334 3.3445 11.706 3.3445 3.85 0 6.3778-1.7111 2.9167-1.9444 2.9167-5.6389 0-0.81667-0.15555-3.6556-4.3167 5.25-10.967 5.25-7.1945 0-11.822-5.1722-4.4334-4.9778-4.4334-12.25 0-7.3889 4.2778-12.561 4.55-5.5222 11.822-5.5222 6.4167 0 10.189 4.9389 0.62223 0.81667 0.89445 0.81667 0.31111 0 0.31111-0.7 0-0.50556-0.0778-1.5944-0.0778-1.1278-0.0778-1.6722 0-2.3333 0.46666-2.3333 0.38889 0 4.2 0.73889 3.8111 0.7 4.1611 0.85556 0.54445 0.19444 0.54445 1.0111zm-9.3334 16.022q0-4.3556-2.3722-7.3889-2.6056-3.3056-6.8445-3.3056-4.2 0-6.8056 3.3444-2.3722 3.0333-2.3722 7.35 0 4.2389 2.4111 7.3111 2.6056 3.3445 6.7667 3.3445 4.1222 0 6.7667-3.3445 2.45-3.0722 2.45-7.3111zm-29.206-16.294q0 4.2778-0.58333 7.7778-0.11667 0.89445-0.77778 0.89445-0.81667 0-2.4889-0.15556-1.6333-0.19444-2.4889-0.19444-4.9 0-6.2611 2.7611-0.81667 1.6722-0.81667 6.9611v4.2778q0 2.1778 0.15556 6.6111 0.19444 4.4334 0.19444 6.6111 0 1.05-0.89444 1.05-1.2056 0-3.6556-0.0389t-3.6556-0.0389q-0.89445 0-0.89445-0.97222 0-3.15 0.0778-9.4889 0.11667-6.3389 0.11667-9.5278 0-9.6056-1.7889-15.439-0.0778-0.31111-0.0778-0.46667 0-0.46667 0.50555-0.66111 1.4389-0.15556 4.0445-0.46667 4.2-0.77778 3.8889-0.77778 0.62223 0 0.81667 2.2944 0.19445 2.2945 0.7 2.2945 0.0778 0 0.19445-0.0778 1.5944-1.0111 3.1889-2.0222 1.75-1.05 3.5778-1.5556 1.5167-0.46667 3.8889-0.46667 3.0333 0 3.0333 0.81667zm-27.689 15.633q0 2.8778-2.4889 3.85-1.6722 0.62223-24.072 2.2945 0.50556 3.4222 3.7722 5.8334 3.1111 2.2944 6.6889 2.2944 6.1445 0 11.278-3.9667 0.62223-0.50556 1.2444-1.0111 0.31111 0 0.38889 0.0778 0.11667 0.0778 1.4778 2.7222 1.3611 2.6056 1.3611 2.8 0 0.23334-0.62223 0.89445-5.7167 6.0667-14.661 6.0667-9.0222 0-14.389-5.3667-5.3667-5.4056-5.3667-14.389 0-8.0111 5.1334-13.961 5.4056-6.1834 13.261-6.1834 7.3111 0 12.211 5.3667 4.7834 5.2111 4.7834 12.678zm-9.2556-2.3722q0-3.2278-2.5667-5.7167-2.5278-2.4889-5.7167-2.4889-3.5778 0-6.3778 2.8778-2.7611 2.8778-2.7611 6.4556 0 0.81667 1.4 0.81667 5.7556 0 13.767-1.1667 2.2556-0.31111 2.2556-0.77778zm-29.245-11.161q0 9.1389-4.9389 14.622-5.0945 5.6389-14.117 5.6389-2.2167 0-6.7278-0.15555-4.4722-0.19445-6.7278-0.19445-1.2444 0-1.2444 1.5944 0 2.0611 0.23334 6.1834 0.27222 4.1222 0.27222 6.1834 0 0.66111-0.73889 0.66111-0.81667 0-2.4889-0.15556-1.6333-0.19444-2.45-0.19444-0.70001 0-2.0611 0.11667-1.3611 0.11666-2.0222 0.11666-0.97223 0-0.97223-1.2056 0-4.2389 0.35001-12.794 0.38889-8.5556 0.38889-12.833 0-12.133-0.89445-26.056l-0.0389-0.58333q-0.0389-0.85556 1.0111-0.85556 2.1 0 6.3 0.0389 4.2389 0.0389 6.3778 0.0389 1.8278 0 5.4834-0.15556 3.6556-0.15555 5.4834-0.15555 8.5945 0 14.117 5.8334 5.4056 5.7167 5.4056 14.311zm-9.8 0.58333q0-5.8334-3.15-9.3334-3.2667-3.6556-9.0222-3.6556-1.7889 0-6.3778 0.31111-5.25 0.31111-5.4056 0.62223-0.27222 0.46666-0.27222 13.378 0 1.6333 0.0778 4.9 0.11667 3.2667 0.11667 4.9 0 0.35 0.85555 0.54444 2.1389 0.42778 11.861 0.42778 5.4445 0 8.4778-3.3833 2.8389-3.2278 2.8389-8.7111z"/>
  </g>
  <path d="m202.98 6.5559 68.02-2.6241c5.7526-0.22193 10.601 3.2162 10.87 7.7089l1.314 21.908c0.26944 4.4927-4.1448 8.2882-9.8974 8.5101 0 0-32.976 1.2721-54.29 2.0944-2.3048 0.08891-12.852 11.038-14.558 12.44-1.6759 1.3773 0.82823-11.91 0.82823-11.91-5.8386 0.37372-10.601-3.2163-10.87-7.7089l-1.314-21.908c-0.26945-4.4927 4.1448-8.2882 9.8974-8.5101z" fill="#00fe7e" fill-rule="evenodd" stroke-width=".49693"/>
  <rect x="624.2" y="333.83" width="1.9103" height=".47758" ry=".23879" fill="#00f" fill-rule="evenodd"/>
 </g>
</svg>
